# xmcd
#
# Track frame offsets:
#	150
#	11833
#	20088
#	37074
#	50353
#	70738
#	84762
#	107596
#	120352
#	132305
#	141934
#	156604
#	173630
#	190662
#	204038
#	216960
#	228371
#	240663
#
# Disc length: 3369 seconds
#
# Revision: 1
# Processed by: cddbd v1.5.1PL2 Copyright (c) Steve Scherf et al.
# Submitted via: audiograbber 1.82.02
#
DISCID=f10d2712
DTITLE=Etta James - 18 Great Gospel Favourites
DYEAR=2004
DGENRE=Gospel
TTITLE0=Let's All Go Down To The River
TTITLE1=Old Time Religion
TTITLE2=Blowing In The Wind
TTITLE3=Amen - This Little Light Of Mine
TTITLE4=Oh Happy Day
TTITLE5=Down By The Riverside
TTITLE6=Lord Don't Move The Mountain
TTITLE7=I'll Fly Away
TTITLE8=I'll Make It Right
TTITLE9=Jesus Is My Kind Of People
TTITLE10=To My Father's House
TTITLE11=Storms Of Troubled Times
TTITLE12=Walk All Over God's Heaven
TTITLE13=We'll Fly You To The Promised Land
TTITLE14=Swing Low, Sweet Chariot
TTITLE15=Jesus, Lover Of My Soul
TTITLE16=I Saw The Light
TTITLE17=He's Got The Whole World In His Hands
EXTD=
EXTT0=
EXTT1=
EXTT2=
EXTT3=
EXTT4=
EXTT5=
EXTT6=
EXTT7=
EXTT8=
EXTT9=
EXTT10=
EXTT11=
EXTT12=
EXTT13=
EXTT14=
EXTT15=
EXTT16=
EXTT17=
PLAYORDER=
